<svg xmlns="http://www.w3.org/2000/svg" xmlns:xlink="http://www.w3.org/1999/xlink" width="48" zoomAndPan="magnify" viewBox="0 0 36 36.000001" height="48" preserveAspectRatio="xMidYMid meet" version="1.0"><defs><clipPath id="c88d2d67da"><path d="M 10 20 L 16 20 L 16 27.679688 L 10 27.679688 Z M 10 20 " clip-rule="nonzero"/></clipPath><clipPath id="41f275167a"><path d="M 2.589844 19 L 11 19 L 11 26 L 2.589844 26 Z M 2.589844 19 " clip-rule="nonzero"/></clipPath><clipPath id="9c5f246451"><path d="M 20 7.246094 L 33 7.246094 L 33 20 L 20 20 Z M 20 7.246094 " clip-rule="nonzero"/></clipPath></defs><g clip-path="url(#c88d2d67da)"><path fill="#105e86" d="M 11.066406 26.996094 C 10.882812 26.996094 10.71875 26.984375 10.582031 26.960938 L 10.582031 27.570312 C 10.867188 27.683594 11.097656 27.738281 11.292969 27.738281 C 12.007812 27.738281 12.671875 27.300781 13.273438 26.417969 C 14.046875 25.277344 14.667969 23.449219 15.144531 20.929688 L 14.039062 20.929688 C 13.84375 22.476562 13.496094 23.90625 12.996094 25.214844 C 13.03125 24.953125 12.945312 24.496094 12.738281 23.835938 L 11.828125 20.929688 L 10.6875 20.929688 L 11.957031 24.816406 C 12.148438 25.398438 12.246094 25.785156 12.246094 25.976562 C 12.246094 26.25 12.121094 26.5 11.875 26.722656 C 11.671875 26.902344 11.402344 26.996094 11.066406 26.996094 Z M 11.066406 26.996094 " fill-opacity="1" fill-rule="nonzero"/></g><path fill="#de8a03" d="M 27.285156 19.148438 L 27.285156 25.953125 L 30.582031 25.953125 L 30.582031 25.113281 L 28.394531 25.113281 L 28.394531 19.148438 Z M 27.285156 19.148438 " fill-opacity="1" fill-rule="nonzero"/><g clip-path="url(#41f275167a)"><path fill="#105e86" d="M 4.1875 20.523438 L 4.199219 20.523438 L 5.953125 25.953125 L 6.835938 25.953125 L 8.601562 20.523438 L 8.613281 20.523438 C 8.796875 22.222656 8.914062 24.027344 8.949219 25.953125 L 10.113281 25.953125 C 10.058594 23.894531 9.882812 21.625 9.578125 19.148438 L 8.207031 19.148438 L 6.519531 24.148438 L 6.511719 24.148438 L 4.835938 19.148438 L 3.398438 19.148438 C 3.125 21.261719 2.953125 23.53125 2.882812 25.953125 L 3.941406 25.953125 C 3.976562 23.960938 4.058594 22.152344 4.1875 20.523438 Z M 4.1875 20.523438 " fill-opacity="1" fill-rule="nonzero"/></g><path fill="#de8a03" d="M 26.28125 22.421875 C 26.28125 20.171875 25.382812 19.042969 23.582031 19.042969 C 22.699219 19.042969 22.011719 19.328125 21.515625 19.898438 C 20.976562 20.527344 20.707031 21.445312 20.707031 22.664062 C 20.707031 23.859375 20.945312 24.738281 21.425781 25.296875 C 21.863281 25.800781 22.523438 26.054688 23.40625 26.054688 C 23.738281 26.054688 24.042969 26.011719 24.316406 25.933594 L 25.976562 26.882812 L 26.425781 26.117188 L 26.421875 26.117188 L 25.148438 25.503906 C 25.261719 25.410156 25.371094 25.308594 25.46875 25.195312 C 26.011719 24.570312 26.28125 23.648438 26.28125 22.421875 Z M 23.523438 25.210938 C 22.964844 25.210938 22.558594 25.003906 22.296875 24.597656 L 22.300781 24.589844 C 22.015625 24.148438 21.875 23.433594 21.875 22.453125 C 21.875 20.738281 22.40625 19.882812 23.46875 19.882812 C 24.023438 19.882812 24.433594 20.085938 24.691406 20.496094 C 24.972656 20.941406 25.113281 21.648438 25.113281 22.617188 C 25.113281 24.34375 24.582031 25.210938 23.523438 25.210938 Z M 23.523438 25.210938 " fill-opacity="1" fill-rule="nonzero"/><path fill="#de8a03" d="M 19.417969 22.632812 C 19.417969 22.632812 18.421875 22.074219 17.929688 21.808594 C 17.390625 21.511719 17.097656 21.164062 17.097656 20.761719 C 17.097656 20.5 17.214844 20.285156 17.40625 20.117188 C 17.597656 19.945312 17.871094 19.863281 18.226562 19.863281 C 18.664062 19.863281 19.109375 19.960938 19.558594 20.148438 L 19.828125 19.5625 C 19.300781 19.222656 18.714844 19.058594 18.074219 19.058594 C 17.445312 19.058594 16.9375 19.226562 16.542969 19.566406 C 16.152344 19.90625 15.957031 20.347656 15.957031 20.902344 C 15.957031 21.570312 16.21875 21.972656 16.746094 22.351562 C 16.746094 22.351562 17.71875 22.898438 18.203125 23.160156 C 18.726562 23.449219 19.015625 23.792969 19.015625 24.199219 C 19.015625 24.523438 18.875 24.777344 18.640625 24.957031 C 18.402344 25.136719 18.074219 25.230469 17.660156 25.230469 C 17.210938 25.230469 16.71875 25.097656 16.167969 24.824219 L 15.871094 25.410156 C 16.507812 25.832031 17.164062 26.042969 17.84375 26.042969 C 18.570312 26.042969 19.144531 25.859375 19.574219 25.492188 C 20.007812 25.121094 20.222656 24.648438 20.222656 24.066406 L 20.230469 24.070312 C 20.230469 23.410156 19.960938 23.007812 19.417969 22.632812 Z M 19.417969 22.632812 " fill-opacity="1" fill-rule="nonzero"/><path fill="#105e86" d="M 23.433594 9.714844 C 23.289062 9.714844 23.191406 9.730469 23.089844 9.753906 L 23.089844 9.769531 L 23.105469 9.769531 C 23.175781 9.898438 23.289062 9.992188 23.375 10.105469 C 23.441406 10.238281 23.5 10.371094 23.566406 10.5 L 23.585938 10.480469 C 23.703125 10.398438 23.761719 10.269531 23.761719 10.070312 C 23.710938 10.011719 23.703125 9.957031 23.660156 9.898438 C 23.609375 9.816406 23.503906 9.777344 23.433594 9.710938 Z M 23.433594 9.714844 " fill-opacity="1" fill-rule="nonzero"/><g clip-path="url(#9c5f246451)"><path fill="#105e86" d="M 32.5625 19.03125 C 32.320312 18.710938 32.019531 18.429688 31.695312 18.199219 C 31.425781 18.019531 30.839844 17.769531 30.730469 17.46875 L 30.710938 17.449219 C 30.894531 17.433594 31.113281 17.367188 31.289062 17.320312 C 31.574219 17.246094 31.832031 17.261719 32.128906 17.1875 C 32.261719 17.15625 32.394531 17.113281 32.527344 17.074219 L 32.527344 17 C 32.378906 16.851562 32.265625 16.652344 32.109375 16.511719 C 31.683594 16.148438 31.210938 15.796875 30.726562 15.5 C 30.464844 15.335938 30.132812 15.230469 29.855469 15.089844 C 29.753906 15.039062 29.585938 15.015625 29.527344 14.933594 C 29.378906 14.753906 29.292969 14.515625 29.183594 14.300781 C 28.945312 13.847656 28.707031 13.34375 28.5 12.867188 C 28.347656 12.546875 28.257812 12.226562 28.074219 11.929688 C 27.210938 10.53125 26.273438 9.679688 24.835938 8.851562 C 24.523438 8.679688 24.152344 8.605469 23.761719 8.515625 C 23.554688 8.503906 23.34375 8.492188 23.136719 8.480469 C 22.996094 8.425781 22.863281 8.265625 22.746094 8.191406 C 22.269531 7.894531 21.039062 7.257812 20.6875 8.101562 C 20.460938 8.636719 21.023438 9.164062 21.214844 9.433594 C 21.359375 9.621094 21.542969 9.839844 21.644531 10.050781 C 21.703125 10.191406 21.71875 10.339844 21.777344 10.488281 C 21.910156 10.851562 22.035156 11.253906 22.210938 11.59375 C 22.304688 11.765625 22.402344 11.945312 22.519531 12.101562 C 22.589844 12.191406 22.703125 12.230469 22.730469 12.378906 C 22.613281 12.546875 22.605469 12.792969 22.535156 12.996094 C 22.238281 13.925781 22.355469 15.078125 22.78125 15.765625 C 22.914062 15.96875 23.234375 16.421875 23.660156 16.25 C 24.035156 16.101562 23.953125 15.632812 24.0625 15.21875 C 24.085938 15.121094 24.070312 15.054688 24.121094 14.988281 L 24.121094 15.007812 C 24.238281 15.242188 24.355469 15.460938 24.464844 15.691406 C 24.722656 16.09375 25.171875 16.515625 25.550781 16.792969 C 25.75 16.941406 25.910156 17.199219 26.160156 17.289062 L 26.160156 17.265625 L 26.140625 17.265625 C 26.089844 17.191406 26.015625 17.160156 25.949219 17.101562 C 25.796875 16.953125 25.628906 16.769531 25.511719 16.605469 C 25.160156 16.144531 24.851562 15.632812 24.574219 15.109375 C 24.4375 14.851562 24.320312 14.570312 24.210938 14.316406 C 24.160156 14.21875 24.160156 14.070312 24.078125 14.019531 C 23.953125 14.199219 23.769531 14.355469 23.675781 14.578125 C 23.519531 14.933594 23.5 15.367188 23.441406 15.824219 C 23.40625 15.832031 23.425781 15.824219 23.40625 15.839844 C 23.140625 15.777344 23.046875 15.503906 22.949219 15.273438 C 22.699219 14.6875 22.65625 13.75 22.871094 13.074219 C 22.929688 12.902344 23.183594 12.359375 23.082031 12.195312 C 23.027344 12.039062 22.863281 11.949219 22.773438 11.824219 C 22.664062 11.667969 22.546875 11.472656 22.472656 11.296875 C 22.269531 10.835938 22.171875 10.328125 21.953125 9.867188 C 21.851562 9.652344 21.679688 9.429688 21.535156 9.234375 C 21.375 9.011719 21.199219 8.859375 21.074219 8.59375 C 21.03125 8.503906 20.972656 8.355469 21.039062 8.257812 C 21.058594 8.191406 21.09375 8.164062 21.15625 8.148438 C 21.269531 8.058594 21.578125 8.175781 21.6875 8.222656 C 21.996094 8.347656 22.257812 8.460938 22.515625 8.632812 C 22.632812 8.714844 22.761719 8.871094 22.910156 8.914062 L 23.085938 8.914062 C 23.355469 8.96875 23.65625 8.929688 23.90625 9.003906 C 24.351562 9.144531 24.75 9.347656 25.109375 9.570312 C 26.207031 10.253906 27.109375 11.222656 27.722656 12.382812 C 27.824219 12.570312 27.867188 12.746094 27.957031 12.941406 C 28.132812 13.347656 28.351562 13.757812 28.527344 14.152344 C 28.703125 14.539062 28.871094 14.933594 29.125 15.253906 C 29.25 15.425781 29.753906 15.519531 29.980469 15.609375 C 30.144531 15.683594 30.40625 15.75 30.554688 15.839844 C 30.84375 16.011719 31.125 16.210938 31.394531 16.398438 C 31.53125 16.492188 31.949219 16.699219 31.972656 16.863281 C 31.304688 16.847656 30.785156 16.914062 30.347656 17.097656 C 30.222656 17.144531 30.023438 17.144531 30.007812 17.300781 C 30.074219 17.367188 30.085938 17.472656 30.144531 17.566406 C 30.246094 17.730469 30.417969 17.949219 30.578125 18.066406 C 30.753906 18.203125 30.929688 18.332031 31.113281 18.445312 C 31.4375 18.644531 31.808594 18.761719 32.125 18.957031 C 32.308594 19.074219 32.492188 19.21875 32.679688 19.34375 C 32.769531 19.40625 32.828125 19.515625 32.945312 19.554688 L 32.945312 19.53125 C 32.886719 19.457031 32.871094 19.351562 32.816406 19.269531 C 32.730469 19.1875 32.648438 19.113281 32.5625 19.03125 Z M 32.5625 19.03125 " fill-opacity="1" fill-rule="nonzero"/></g></svg>