<svg xmlns="http://www.w3.org/2000/svg" xmlns:xlink="http://www.w3.org/1999/xlink" width="48" zoomAndPan="magnify" viewBox="0 0 36 36.000001" height="48" preserveAspectRatio="xMidYMid meet" version="1.0"><defs><clipPath id="25dfe455e5"><path d="M 10 9 L 33.617188 9 L 33.617188 33 L 10 33 Z M 10 9 " clip-rule="nonzero"/></clipPath><clipPath id="7a4fde85ed"><path d="M 2.238281 1.75 L 26 1.75 L 26 25 L 2.238281 25 Z M 2.238281 1.75 " clip-rule="nonzero"/></clipPath></defs><g clip-path="url(#25dfe455e5)"><path fill="#f2bb30" d="M 29.09375 24.796875 C 31.246094 24.796875 32.042969 23.296875 32.789062 21.046875 C 33.566406 18.730469 33.53125 16.503906 32.789062 13.535156 C 32.257812 11.398438 31.246094 9.785156 29.09375 9.785156 L 26.324219 9.785156 L 26.324219 13.066406 C 26.324219 15.613281 24.164062 17.757812 21.703125 17.757812 L 14.3125 17.757812 C 12.292969 17.757812 10.621094 19.484375 10.621094 21.511719 L 10.621094 28.554688 C 10.621094 30.5625 12.363281 31.738281 14.3125 32.3125 C 16.652344 32.996094 18.902344 33.121094 21.703125 32.3125 C 23.5625 31.773438 25.394531 30.683594 25.394531 28.554688 L 25.394531 25.738281 L 18.011719 25.738281 L 18.011719 24.800781 L 29.09375 24.800781 Z M 22.164062 27.613281 C 22.933594 27.613281 23.554688 28.246094 23.554688 29.019531 C 23.554688 29.800781 22.933594 30.429688 22.164062 30.429688 C 21.402344 30.429688 20.773438 29.792969 20.773438 29.019531 C 20.78125 28.238281 21.40625 27.613281 22.164062 27.613281 Z M 22.164062 27.613281 " fill-opacity="1" fill-rule="nonzero"/></g><g clip-path="url(#7a4fde85ed)"><path fill="#35668f" d="M 6.8125 24.800781 L 9.351562 24.800781 L 9.351562 21.421875 C 9.351562 18.980469 11.460938 16.828125 13.972656 16.828125 L 21.359375 16.828125 C 23.414062 16.828125 25.054688 15.132812 25.054688 13.070312 L 25.054688 6.023438 C 25.054688 4.019531 23.367188 2.515625 21.359375 2.179688 C 18.882812 1.769531 16.191406 1.792969 13.972656 2.1875 L 13.972656 2.183594 C 10.847656 2.738281 10.28125 3.890625 10.28125 6.03125 L 10.28125 8.847656 L 17.675781 8.847656 L 17.675781 9.785156 L 7.507812 9.785156 C 5.355469 9.785156 3.472656 11.082031 2.886719 13.535156 C 2.207031 16.351562 2.179688 18.109375 2.886719 21.050781 C 3.410156 23.234375 4.664062 24.800781 6.8125 24.800781 Z M 13.511719 6.964844 C 12.742188 6.964844 12.121094 6.335938 12.121094 5.558594 C 12.128906 4.777344 12.742188 4.148438 13.511719 4.148438 C 14.273438 4.148438 14.902344 4.785156 14.902344 5.558594 C 14.902344 6.335938 14.277344 6.964844 13.511719 6.964844 Z M 13.511719 6.964844 " fill-opacity="1" fill-rule="nonzero"/></g></svg>