<svg xmlns="http://www.w3.org/2000/svg" xmlns:xlink="http://www.w3.org/1999/xlink" width="48" zoomAndPan="magnify" viewBox="0 0 36 36.000001" height="48" preserveAspectRatio="xMidYMid meet" version="1.0"><defs><clipPath id="d551e040dd"><path d="M 1.75 0.652344 L 34.589844 0.652344 L 34.589844 34.949219 L 1.75 34.949219 Z M 1.75 0.652344 " clip-rule="nonzero"/></clipPath><clipPath id="cd842d357b"><path d="M 17 0.652344 L 34.589844 0.652344 L 34.589844 34.949219 L 17 34.949219 Z M 17 0.652344 " clip-rule="nonzero"/></clipPath></defs><g clip-path="url(#d551e040dd)"><path fill="#e23237" d="M 1.792969 6.339844 L 17.953125 0.652344 L 34.542969 6.238281 L 31.859375 27.351562 L 17.953125 34.957031 L 4.265625 27.453125 Z M 1.792969 6.339844 " fill-opacity="1" fill-rule="nonzero"/></g><g clip-path="url(#cd842d357b)"><path fill="#b52e31" d="M 34.542969 6.238281 L 17.953125 0.652344 L 17.953125 34.957031 L 31.859375 27.363281 Z M 34.542969 6.238281 " fill-opacity="1" fill-rule="nonzero"/></g><path fill="#ffffff" d="M 17.976562 4.660156 L 7.910156 26.78125 L 11.671875 26.71875 L 13.691406 21.730469 L 22.722656 21.730469 L 24.9375 26.78125 L 28.53125 26.84375 Z M 18.003906 11.746094 L 21.40625 18.769531 L 15.011719 18.769531 Z M 18.003906 11.746094 " fill-opacity="1" fill-rule="nonzero"/></svg>